<!--?xml version="1.0" standalone="no"?-->
              <svg id="sw-js-blob-svg" viewBox="0 0 100 100" xmlns="http://www.w3.org/2000/svg" version="1.1">
                    <defs> 
                        <linearGradient id="sw-gradient" x1="0" x2="1" y1="1" y2="0">
                            <stop id="stop1" stop-color="rgba(29.009, 61.341, 96.835, 1)" offset="0%"></stop>
                            <stop id="stop2" stop-color="rgba(192.46, 192.46, 192.46, 1)" offset="100%"></stop>
                        </linearGradient>
                    </defs>
                <path fill="url(#sw-gradient)" d="M22.5,-27.3C27.3,-22.7,28.1,-13.9,27.7,-6.4C27.2,1.2,25.6,7.5,23.6,16C21.5,24.5,19.1,35.2,13.3,37.8C7.6,40.4,-1.6,34.9,-7.9,29.3C-14.2,23.7,-17.7,18,-23.8,11.6C-30,5.3,-38.9,-1.5,-39,-7.9C-39.1,-14.2,-30.4,-20.1,-22.4,-24.1C-14.5,-28.1,-7.2,-30.2,0.8,-31.2C8.8,-32.1,17.7,-31.8,22.5,-27.3Z" width="100%" height="100%" transform="translate(50 50)" stroke-width="0" style="transition: all 0.3s ease 0s;"></path>
              </svg>